<svg xmlns="http://www.w3.org/2000/svg" xmlns:xlink="http://www.w3.org/1999/xlink" width="545" zoomAndPan="magnify" viewBox="0 0 408.75 104.999996" height="140" preserveAspectRatio="xMidYMid meet" version="1.0"><defs><g/></defs><g fill="#ffffff" fill-opacity="1"><g transform="translate(42.321871, 87.288607)"><g><path d="M 76.9375 -38.234375 C 76.9375 -26.804688 73.5 -17.535156 66.625 -10.421875 C 59.75 -3.472656 50.554688 0 39.046875 0 L 3.25 0 L 3.25 -2.78125 L 13.796875 -2.78125 L 13.796875 -71.953125 L 3.25 -71.953125 L 3.25 -74.734375 L 39.046875 -74.734375 C 50.097656 -74.734375 59.140625 -71.453125 66.171875 -64.890625 C 73.347656 -58.015625 76.9375 -49.128906 76.9375 -38.234375 Z M 62.6875 -41.015625 C 62.6875 -50.054688 60.988281 -57.203125 57.59375 -62.453125 C 53.570312 -68.785156 47.3125 -71.953125 38.8125 -71.953125 L 26.421875 -71.953125 L 26.421875 -2.78125 L 38.8125 -2.78125 C 54.726562 -2.78125 62.6875 -13.671875 62.6875 -35.453125 Z M 62.6875 -41.015625 "/></g></g></g><g fill="#ffffff" fill-opacity="1"><g transform="translate(118.443477, 87.288607)"><g><path d="M 10.3125 -13.90625 C 10.625 -13.90625 10.835938 -13.882812 10.953125 -13.84375 C 11.066406 -13.8125 11.238281 -13.753906 11.46875 -13.671875 C 11.695312 -13.597656 12.082031 -13.539062 12.625 -13.5 C 13.164062 -13.457031 13.59375 -13.398438 13.90625 -13.328125 C 14.0625 -12.398438 14.175781 -11.800781 14.25 -11.53125 C 14.332031 -11.257812 14.410156 -11.046875 14.484375 -10.890625 C 14.867188 -10.816406 15.367188 -10.703125 15.984375 -10.546875 C 16.609375 -10.390625 17.421875 -10.234375 18.421875 -10.078125 L 18.421875 -8 C 17.960938 -6.988281 17.441406 -6.019531 16.859375 -5.09375 C 16.273438 -4.164062 15.640625 -3.160156 14.953125 -2.078125 C 14.796875 -1.929688 14.71875 -1.816406 14.71875 -1.734375 C 14.019531 -0.734375 13.4375 0.09375 12.96875 0.75 C 12.507812 1.40625 12.203125 1.96875 12.046875 2.4375 C 11.890625 2.507812 11.617188 2.582031 11.234375 2.65625 C 10.847656 2.738281 10.578125 2.816406 10.421875 2.890625 L 10.421875 2.78125 C 10.273438 2.851562 10.046875 2.945312 9.734375 3.0625 C 9.421875 3.1875 9.148438 3.285156 8.921875 3.359375 L 7.53125 2.3125 C 7.375 2.15625 7.101562 1.960938 6.71875 1.734375 C 6.332031 1.503906 6.023438 1.3125 5.796875 1.15625 L 6.609375 -11.015625 C 6.992188 -11.398438 7.4375 -11.820312 7.9375 -12.28125 C 8.4375 -12.75 9 -13.210938 9.625 -13.671875 Z M 10.3125 -13.90625 "/></g></g></g><g fill="#ffffff" fill-opacity="1"><g transform="translate(141.384074, 87.288607)"><g/></g></g><g fill="#ffffff" fill-opacity="1"><g transform="translate(166.294332, 87.288607)"><g><path d="M 76.9375 -38.234375 C 76.9375 -26.804688 73.5 -17.535156 66.625 -10.421875 C 59.75 -3.472656 50.554688 0 39.046875 0 L 3.25 0 L 3.25 -2.78125 L 13.796875 -2.78125 L 13.796875 -71.953125 L 3.25 -71.953125 L 3.25 -74.734375 L 39.046875 -74.734375 C 50.097656 -74.734375 59.140625 -71.453125 66.171875 -64.890625 C 73.347656 -58.015625 76.9375 -49.128906 76.9375 -38.234375 Z M 62.6875 -41.015625 C 62.6875 -50.054688 60.988281 -57.203125 57.59375 -62.453125 C 53.570312 -68.785156 47.3125 -71.953125 38.8125 -71.953125 L 26.421875 -71.953125 L 26.421875 -2.78125 L 38.8125 -2.78125 C 54.726562 -2.78125 62.6875 -13.671875 62.6875 -35.453125 Z M 62.6875 -41.015625 "/></g></g></g><g fill="#ffffff" fill-opacity="1"><g transform="translate(242.415927, 87.288607)"><g><path d="M 10.3125 -13.90625 C 10.625 -13.90625 10.835938 -13.882812 10.953125 -13.84375 C 11.066406 -13.8125 11.238281 -13.753906 11.46875 -13.671875 C 11.695312 -13.597656 12.082031 -13.539062 12.625 -13.5 C 13.164062 -13.457031 13.59375 -13.398438 13.90625 -13.328125 C 14.0625 -12.398438 14.175781 -11.800781 14.25 -11.53125 C 14.332031 -11.257812 14.410156 -11.046875 14.484375 -10.890625 C 14.867188 -10.816406 15.367188 -10.703125 15.984375 -10.546875 C 16.609375 -10.390625 17.421875 -10.234375 18.421875 -10.078125 L 18.421875 -8 C 17.960938 -6.988281 17.441406 -6.019531 16.859375 -5.09375 C 16.273438 -4.164062 15.640625 -3.160156 14.953125 -2.078125 C 14.796875 -1.929688 14.71875 -1.816406 14.71875 -1.734375 C 14.019531 -0.734375 13.4375 0.09375 12.96875 0.75 C 12.507812 1.40625 12.203125 1.96875 12.046875 2.4375 C 11.890625 2.507812 11.617188 2.582031 11.234375 2.65625 C 10.847656 2.738281 10.578125 2.816406 10.421875 2.890625 L 10.421875 2.78125 C 10.273438 2.851562 10.046875 2.945312 9.734375 3.0625 C 9.421875 3.1875 9.148438 3.285156 8.921875 3.359375 L 7.53125 2.3125 C 7.375 2.15625 7.101562 1.960938 6.71875 1.734375 C 6.332031 1.503906 6.023438 1.3125 5.796875 1.15625 L 6.609375 -11.015625 C 6.992188 -11.398438 7.4375 -11.820312 7.9375 -12.28125 C 8.4375 -12.75 9 -13.210938 9.625 -13.671875 Z M 10.3125 -13.90625 "/></g></g></g><g fill="#ffffff" fill-opacity="1"><g transform="translate(265.356524, 87.288607)"><g/></g></g><g fill="#ffffff" fill-opacity="1"><g transform="translate(290.266771, 87.288607)"><g><path d="M 61.296875 -54.921875 C 61.296875 -53.609375 60.832031 -52.953125 59.90625 -52.953125 C 58.976562 -52.953125 58.476562 -53.648438 58.40625 -55.046875 C 58.164062 -59.210938 57.082031 -62.84375 55.15625 -65.9375 C 52.757812 -69.945312 49.164062 -71.953125 44.375 -71.953125 L 26.765625 -71.953125 L 26.765625 -40.78125 L 35.6875 -40.78125 C 38.625 -40.78125 40.710938 -41.75 41.953125 -43.6875 C 42.253906 -44.144531 42.597656 -44.929688 42.984375 -46.046875 C 43.367188 -47.171875 43.753906 -48.625 44.140625 -50.40625 C 44.535156 -51.71875 45 -52.375 45.53125 -52.375 C 46.382812 -52.375 46.8125 -51.753906 46.8125 -50.515625 L 46.8125 -28.28125 C 46.8125 -26.957031 46.382812 -26.296875 45.53125 -26.296875 C 45 -26.296875 44.304688 -27.648438 43.453125 -30.359375 C 43.140625 -31.210938 42.867188 -32.0625 42.640625 -32.90625 C 42.410156 -33.757812 42.140625 -34.609375 41.828125 -35.453125 C 40.671875 -37.148438 38.625 -38 35.6875 -38 L 26.765625 -38 L 26.765625 -2.78125 L 37.078125 -2.78125 L 37.078125 0 L 4.171875 0 L 4.171875 -2.78125 L 14.140625 -2.78125 L 14.140625 -71.953125 L 3.9375 -71.953125 L 3.9375 -74.734375 L 57.828125 -74.734375 C 60.140625 -74.734375 61.296875 -73.691406 61.296875 -71.609375 Z M 61.296875 -54.921875 "/></g></g></g><g fill="#ffffff" fill-opacity="1"><g transform="translate(352.716564, 87.288607)"><g><path d="M 10.3125 -13.90625 C 10.625 -13.90625 10.835938 -13.882812 10.953125 -13.84375 C 11.066406 -13.8125 11.238281 -13.753906 11.46875 -13.671875 C 11.695312 -13.597656 12.082031 -13.539062 12.625 -13.5 C 13.164062 -13.457031 13.59375 -13.398438 13.90625 -13.328125 C 14.0625 -12.398438 14.175781 -11.800781 14.25 -11.53125 C 14.332031 -11.257812 14.410156 -11.046875 14.484375 -10.890625 C 14.867188 -10.816406 15.367188 -10.703125 15.984375 -10.546875 C 16.609375 -10.390625 17.421875 -10.234375 18.421875 -10.078125 L 18.421875 -8 C 17.960938 -6.988281 17.441406 -6.019531 16.859375 -5.09375 C 16.273438 -4.164062 15.640625 -3.160156 14.953125 -2.078125 C 14.796875 -1.929688 14.71875 -1.816406 14.71875 -1.734375 C 14.019531 -0.734375 13.4375 0.09375 12.96875 0.75 C 12.507812 1.40625 12.203125 1.96875 12.046875 2.4375 C 11.890625 2.507812 11.617188 2.582031 11.234375 2.65625 C 10.847656 2.738281 10.578125 2.816406 10.421875 2.890625 L 10.421875 2.78125 C 10.273438 2.851562 10.046875 2.945312 9.734375 3.0625 C 9.421875 3.1875 9.148438 3.285156 8.921875 3.359375 L 7.53125 2.3125 C 7.375 2.15625 7.101562 1.960938 6.71875 1.734375 C 6.332031 1.503906 6.023438 1.3125 5.796875 1.15625 L 6.609375 -11.015625 C 6.992188 -11.398438 7.4375 -11.820312 7.9375 -12.28125 C 8.4375 -12.75 9 -13.210938 9.625 -13.671875 Z M 10.3125 -13.90625 "/></g></g></g></svg>