<svg xmlns="http://www.w3.org/2000/svg" xmlns:xlink="http://www.w3.org/1999/xlink" width="545" zoomAndPan="magnify" viewBox="0 0 408.75 104.999996" height="140" preserveAspectRatio="xMidYMid meet" version="1.0"><defs><g/><clipPath id="1154edb9b8"><path d="M 0 0.03125 L 408.5 0.03125 L 408.5 104.96875 L 0 104.96875 Z M 0 0.03125 " clip-rule="nonzero"/></clipPath></defs><g clip-path="url(#1154edb9b8)"><path fill="#ffffff" d="M 0 0.03125 L 408.5 0.03125 L 408.5 104.96875 L 0 104.96875 Z M 0 0.03125 " fill-opacity="1" fill-rule="nonzero"/><path fill="#290530" d="M 0 0.03125 L 408.5 0.03125 L 408.5 104.96875 L 0 104.96875 Z M 0 0.03125 " fill-opacity="1" fill-rule="nonzero"/></g><g fill="#ffffff" fill-opacity="1"><g transform="translate(58.559282, 85.854593)"><g><path d="M 69.640625 -34.609375 C 69.640625 -24.265625 66.523438 -15.875 60.296875 -9.4375 C 54.078125 -3.144531 45.757812 0 35.34375 0 L 2.9375 0 L 2.9375 -2.515625 L 12.484375 -2.515625 L 12.484375 -65.125 L 2.9375 -65.125 L 2.9375 -67.640625 L 35.34375 -67.640625 C 45.34375 -67.640625 53.523438 -64.671875 59.890625 -58.734375 C 66.390625 -52.503906 69.640625 -44.460938 69.640625 -34.609375 Z M 56.734375 -37.125 C 56.734375 -45.300781 55.195312 -51.769531 52.125 -56.53125 C 48.488281 -62.257812 42.828125 -65.125 35.140625 -65.125 L 23.90625 -65.125 L 23.90625 -2.515625 L 35.140625 -2.515625 C 49.535156 -2.515625 56.734375 -12.375 56.734375 -32.09375 Z M 56.734375 -37.125 "/></g></g></g><g fill="#ffffff" fill-opacity="1"><g transform="translate(127.455491, 85.854593)"><g><path d="M 9.328125 -12.578125 C 9.609375 -12.578125 9.800781 -12.5625 9.90625 -12.53125 C 10.007812 -12.5 10.164062 -12.445312 10.375 -12.375 C 10.59375 -12.300781 10.945312 -12.25 11.4375 -12.21875 C 11.925781 -12.1875 12.304688 -12.132812 12.578125 -12.0625 C 12.722656 -11.21875 12.828125 -10.671875 12.890625 -10.421875 C 12.960938 -10.179688 13.035156 -9.992188 13.109375 -9.859375 C 13.460938 -9.785156 13.914062 -9.675781 14.46875 -9.53125 C 15.03125 -9.394531 15.765625 -9.257812 16.671875 -9.125 L 16.671875 -7.234375 C 16.253906 -6.328125 15.78125 -5.453125 15.25 -4.609375 C 14.726562 -3.773438 14.15625 -2.867188 13.53125 -1.890625 C 13.382812 -1.742188 13.3125 -1.640625 13.3125 -1.578125 C 12.6875 -0.660156 12.160156 0.09375 11.734375 0.6875 C 11.316406 1.28125 11.039062 1.785156 10.90625 2.203125 C 10.769531 2.273438 10.523438 2.34375 10.171875 2.40625 C 9.828125 2.476562 9.582031 2.550781 9.4375 2.625 L 9.4375 2.515625 C 9.300781 2.585938 9.09375 2.675781 8.8125 2.78125 C 8.53125 2.882812 8.285156 2.972656 8.078125 3.046875 L 6.8125 2.09375 C 6.675781 1.957031 6.429688 1.785156 6.078125 1.578125 C 5.734375 1.367188 5.457031 1.191406 5.25 1.046875 L 5.984375 -9.96875 C 6.328125 -10.3125 6.722656 -10.691406 7.171875 -11.109375 C 7.628906 -11.535156 8.140625 -11.957031 8.703125 -12.375 Z M 9.328125 -12.578125 "/></g></g></g><g fill="#ffffff" fill-opacity="1"><g transform="translate(148.218453, 85.854593)"><g/></g></g><g fill="#ffffff" fill-opacity="1"><g transform="translate(170.764126, 85.854593)"><g><path d="M 69.640625 -34.609375 C 69.640625 -24.265625 66.523438 -15.875 60.296875 -9.4375 C 54.078125 -3.144531 45.757812 0 35.34375 0 L 2.9375 0 L 2.9375 -2.515625 L 12.484375 -2.515625 L 12.484375 -65.125 L 2.9375 -65.125 L 2.9375 -67.640625 L 35.34375 -67.640625 C 45.34375 -67.640625 53.523438 -64.671875 59.890625 -58.734375 C 66.390625 -52.503906 69.640625 -44.460938 69.640625 -34.609375 Z M 56.734375 -37.125 C 56.734375 -45.300781 55.195312 -51.769531 52.125 -56.53125 C 48.488281 -62.257812 42.828125 -65.125 35.140625 -65.125 L 23.90625 -65.125 L 23.90625 -2.515625 L 35.140625 -2.515625 C 49.535156 -2.515625 56.734375 -12.375 56.734375 -32.09375 Z M 56.734375 -37.125 "/></g></g></g><g fill="#ffffff" fill-opacity="1"><g transform="translate(239.660336, 85.854593)"><g><path d="M 9.328125 -12.578125 C 9.609375 -12.578125 9.800781 -12.5625 9.90625 -12.53125 C 10.007812 -12.5 10.164062 -12.445312 10.375 -12.375 C 10.59375 -12.300781 10.945312 -12.25 11.4375 -12.21875 C 11.925781 -12.1875 12.304688 -12.132812 12.578125 -12.0625 C 12.722656 -11.21875 12.828125 -10.671875 12.890625 -10.421875 C 12.960938 -10.179688 13.035156 -9.992188 13.109375 -9.859375 C 13.460938 -9.785156 13.914062 -9.675781 14.46875 -9.53125 C 15.03125 -9.394531 15.765625 -9.257812 16.671875 -9.125 L 16.671875 -7.234375 C 16.253906 -6.328125 15.78125 -5.453125 15.25 -4.609375 C 14.726562 -3.773438 14.15625 -2.867188 13.53125 -1.890625 C 13.382812 -1.742188 13.3125 -1.640625 13.3125 -1.578125 C 12.6875 -0.660156 12.160156 0.09375 11.734375 0.6875 C 11.316406 1.28125 11.039062 1.785156 10.90625 2.203125 C 10.769531 2.273438 10.523438 2.34375 10.171875 2.40625 C 9.828125 2.476562 9.582031 2.550781 9.4375 2.625 L 9.4375 2.515625 C 9.300781 2.585938 9.09375 2.675781 8.8125 2.78125 C 8.53125 2.882812 8.285156 2.972656 8.078125 3.046875 L 6.8125 2.09375 C 6.675781 1.957031 6.429688 1.785156 6.078125 1.578125 C 5.734375 1.367188 5.457031 1.191406 5.25 1.046875 L 5.984375 -9.96875 C 6.328125 -10.3125 6.722656 -10.691406 7.171875 -11.109375 C 7.628906 -11.535156 8.140625 -11.957031 8.703125 -12.375 Z M 9.328125 -12.578125 "/></g></g></g><g fill="#ffffff" fill-opacity="1"><g transform="translate(260.423298, 85.854593)"><g/></g></g><g fill="#ffffff" fill-opacity="1"><g transform="translate(282.968971, 85.854593)"><g><path d="M 55.484375 -49.703125 C 55.484375 -48.515625 55.0625 -47.921875 54.21875 -47.921875 C 53.382812 -47.921875 52.929688 -48.550781 52.859375 -49.8125 C 52.648438 -53.59375 51.671875 -56.878906 49.921875 -59.671875 C 47.753906 -63.304688 44.503906 -65.125 40.171875 -65.125 L 24.21875 -65.125 L 24.21875 -36.921875 L 32.296875 -36.921875 C 34.953125 -36.921875 36.84375 -37.789062 37.96875 -39.53125 C 38.25 -39.957031 38.5625 -40.675781 38.90625 -41.6875 C 39.257812 -42.695312 39.609375 -44.007812 39.953125 -45.625 C 40.304688 -46.8125 40.726562 -47.40625 41.21875 -47.40625 C 41.988281 -47.40625 42.375 -46.84375 42.375 -45.71875 L 42.375 -25.59375 C 42.375 -24.40625 41.988281 -23.8125 41.21875 -23.8125 C 40.726562 -23.8125 40.097656 -25.035156 39.328125 -27.484375 C 39.046875 -28.242188 38.800781 -29.007812 38.59375 -29.78125 C 38.382812 -30.550781 38.140625 -31.320312 37.859375 -32.09375 C 36.804688 -33.632812 34.953125 -34.40625 32.296875 -34.40625 L 24.21875 -34.40625 L 24.21875 -2.515625 L 33.5625 -2.515625 L 33.5625 0 L 3.78125 0 L 3.78125 -2.515625 L 12.796875 -2.515625 L 12.796875 -65.125 L 3.5625 -65.125 L 3.5625 -67.640625 L 52.328125 -67.640625 C 54.429688 -67.640625 55.484375 -66.695312 55.484375 -64.8125 Z M 55.484375 -49.703125 "/></g></g></g><g fill="#ffffff" fill-opacity="1"><g transform="translate(339.491055, 85.854593)"><g><path d="M 9.328125 -12.578125 C 9.609375 -12.578125 9.800781 -12.5625 9.90625 -12.53125 C 10.007812 -12.5 10.164062 -12.445312 10.375 -12.375 C 10.59375 -12.300781 10.945312 -12.25 11.4375 -12.21875 C 11.925781 -12.1875 12.304688 -12.132812 12.578125 -12.0625 C 12.722656 -11.21875 12.828125 -10.671875 12.890625 -10.421875 C 12.960938 -10.179688 13.035156 -9.992188 13.109375 -9.859375 C 13.460938 -9.785156 13.914062 -9.675781 14.46875 -9.53125 C 15.03125 -9.394531 15.765625 -9.257812 16.671875 -9.125 L 16.671875 -7.234375 C 16.253906 -6.328125 15.78125 -5.453125 15.25 -4.609375 C 14.726562 -3.773438 14.15625 -2.867188 13.53125 -1.890625 C 13.382812 -1.742188 13.3125 -1.640625 13.3125 -1.578125 C 12.6875 -0.660156 12.160156 0.09375 11.734375 0.6875 C 11.316406 1.28125 11.039062 1.785156 10.90625 2.203125 C 10.769531 2.273438 10.523438 2.34375 10.171875 2.40625 C 9.828125 2.476562 9.582031 2.550781 9.4375 2.625 L 9.4375 2.515625 C 9.300781 2.585938 9.09375 2.675781 8.8125 2.78125 C 8.53125 2.882812 8.285156 2.972656 8.078125 3.046875 L 6.8125 2.09375 C 6.675781 1.957031 6.429688 1.785156 6.078125 1.578125 C 5.734375 1.367188 5.457031 1.191406 5.25 1.046875 L 5.984375 -9.96875 C 6.328125 -10.3125 6.722656 -10.691406 7.171875 -11.109375 C 7.628906 -11.535156 8.140625 -11.957031 8.703125 -12.375 Z M 9.328125 -12.578125 "/></g></g></g></svg>